<svg width="154" height="28" viewBox="0 0 154 28" fill="none" xmlns="http://www.w3.org/2000/svg">
<g clip-path="url(#clip0_3995_24)">
<path d="M150.28 0H3.71997C1.66549 0 0 1.66549 0 3.71997V23.867C0 25.9215 1.66549 27.587 3.71997 27.587H150.28C152.335 27.587 154 25.9215 154 23.867V3.71997C154 1.66549 152.335 0 150.28 0Z" fill="url(#paint0_linear_3995_24)"/>
<path d="M40.9749 23.6919C40.8399 23.6919 40.7076 23.6675 40.5812 23.6195C40.327 23.522 40.1671 23.3462 40.038 23.2047C40.0347 23.2007 40.0314 23.1974 40.0281 23.1935C39.9017 23.2415 39.7681 23.2666 39.6311 23.2679H39.616C39.5317 23.2679 39.4481 23.2587 39.3664 23.2409L39.3243 23.2317L39.2808 23.2139C39.2631 23.206 39.246 23.1981 39.2288 23.1895C39.2242 23.1941 39.2203 23.1988 39.2157 23.204C39.0873 23.3456 38.9273 23.522 38.6725 23.6188C38.5461 23.6669 38.4137 23.6919 38.2788 23.6919C38.0733 23.6919 37.8798 23.6346 37.7185 23.5266C37.5209 23.3943 37.3958 23.2034 37.3656 22.9894C37.3346 22.7701 37.4057 22.5957 37.4841 22.4673C37.3728 22.385 37.2543 22.2605 37.2062 22.0709C35.3318 21.5784 33.637 20.4927 32.3999 18.981C31.0548 17.3377 30.3141 15.2611 30.3141 13.1338C30.3141 11.7261 30.6229 10.3744 31.2312 9.11621C31.9765 7.57556 33.134 6.27192 34.5785 5.34753C36.0626 4.39745 37.7823 3.89575 39.5521 3.89575C44.6462 3.89575 48.7901 8.03973 48.7901 13.1338C48.7901 14.9036 48.2878 16.6233 47.3384 18.1073C46.414 19.5519 45.111 20.7093 43.5697 21.4546C43.0844 21.6897 42.5768 21.8813 42.0567 22.0281C42.0165 22.2428 41.8888 22.379 41.7696 22.4673C41.848 22.5957 41.9191 22.7701 41.8881 22.9894C41.8578 23.2034 41.7327 23.3936 41.5352 23.5266C41.3739 23.6346 41.1803 23.6919 40.9749 23.6919Z" fill="white" stroke="white" stroke-width="0.0516246" stroke-miterlimit="10"/>
<path d="M39.5521 4.34985C36.0705 4.34985 33.0616 6.37575 31.6408 9.31354C31.0824 10.4684 30.769 11.7641 30.769 13.1329C30.769 17.352 33.7437 20.8751 37.7099 21.7218C37.6618 21.7797 37.6329 21.8534 37.6414 21.9239C37.6605 22.0872 37.8297 22.1405 37.9509 22.2175C38.0016 22.2498 38.0477 22.2959 38.0575 22.3558C38.0668 22.4144 38.0398 22.4756 38.0029 22.5263C37.9127 22.6521 37.7935 22.762 37.8166 22.9247C37.8297 23.0175 37.8943 23.0952 37.9726 23.1479C38.1234 23.2493 38.3321 23.2611 38.5105 23.1933C38.7258 23.111 38.8522 22.9089 39.0129 22.7574C39.0767 22.6969 39.1564 22.6402 39.2321 22.5797C39.2769 22.6745 39.3579 22.7508 39.4599 22.795H39.4639C39.5172 22.8075 39.5719 22.8127 39.6259 22.8121C39.7161 22.8108 39.8056 22.793 39.8886 22.7587C39.9616 22.7285 40.0163 22.6692 40.036 22.5974L40.0374 22.5922C40.1085 22.6481 40.1815 22.7015 40.2415 22.7581C40.4021 22.9095 40.5285 23.1117 40.7438 23.194C40.9222 23.2624 41.131 23.2499 41.2817 23.1485C41.3601 23.0958 41.4246 23.0182 41.4378 22.9253C41.4608 22.7627 41.3416 22.6527 41.2514 22.527C41.2152 22.4763 41.1876 22.4151 41.1968 22.3565C41.2067 22.2972 41.2521 22.2511 41.3035 22.2182C41.4246 22.1412 41.5932 22.0878 41.6129 21.9246C41.6215 21.8502 41.5892 21.7725 41.5365 21.7132C41.5306 21.7066 41.5253 21.7007 41.5194 21.6948C42.1673 21.5466 42.7875 21.3267 43.3715 21.0443C46.3093 19.6234 48.3352 16.6145 48.3352 13.1329C48.3352 8.28182 44.4026 4.34985 39.5521 4.34985Z" fill="white" stroke="white" stroke-width="0.0516246" stroke-miterlimit="10"/>
<path d="M48.3358 13.1337C48.3358 8.28256 44.4031 4.35059 39.5527 4.35059C36.0704 4.35059 33.0622 6.37649 31.6414 9.31427C33.1498 6.94929 35.7965 5.38098 38.8094 5.38098C43.5018 5.38098 47.3054 9.18457 47.3054 13.877C47.3054 16.8898 45.7371 19.5359 43.3721 21.045C46.3099 19.6242 48.3358 16.6153 48.3358 13.1337Z" fill="#B7CE3F"/>
<path d="M47.3048 13.8769C47.3048 9.18444 43.5012 5.38086 38.8088 5.38086C35.7959 5.38086 33.1498 6.94917 31.6408 9.31415C31.0824 10.469 30.769 11.7647 30.769 13.1335C30.769 17.9846 34.7017 21.9166 39.5521 21.9166C40.9209 21.9166 42.2167 21.6032 43.3715 21.0449C45.7365 19.5365 47.3048 16.8897 47.3048 13.8769Z" fill="#88B825"/>
<path d="M45.3314 8.82197C45.6169 8.49726 45.4179 7.85568 44.887 7.38894C44.3561 6.92221 43.6943 6.80708 43.4088 7.13179C43.1234 7.4565 43.3223 8.09809 43.8532 8.56482C44.3841 9.03155 45.0459 9.14668 45.3314 8.82197Z" fill="#B7CE3F"/>
<path d="M42.9578 7.65952C43.1054 7.49157 43.0026 7.15981 42.7282 6.91852C42.4537 6.67724 42.1115 6.61779 41.9639 6.78574C41.8162 6.95369 41.919 7.28545 42.1935 7.52674C42.4679 7.76802 42.8101 7.82748 42.9578 7.65952Z" fill="#B7CE3F"/>
<path d="M43.2657 8.3255C43.3197 8.26405 43.2823 8.14281 43.182 8.0547C43.0818 7.96659 42.9568 7.94497 42.9027 8.00642C42.8487 8.06786 42.8862 8.1891 42.9864 8.27722C43.0866 8.36533 43.2117 8.38695 43.2657 8.3255Z" fill="#B7CE3F"/>
<path d="M38.8377 15.3427C38.2221 16.0603 37.2411 16.2104 36.3957 16.0623C32.8193 15.4381 32.6876 12.0665 34.4699 10.5752C34.9143 10.2032 35.4779 9.94772 36.1369 9.88188C37.6203 9.73242 39.109 10.4185 39.3921 12.6393C39.5567 13.9396 39.3012 14.8028 38.8377 15.3433V15.3427Z" fill="white"/>
<path d="M45.0701 14.6815C45.0701 14.6815 45.0701 14.6822 45.0695 14.6822C44.5803 15.2221 43.8178 15.6408 42.7361 15.8153C41.4831 16.0174 39.928 15.5882 39.7008 13.6887C39.6613 13.3634 39.6613 12.996 39.7074 12.5819C39.7107 12.5569 39.7134 12.5319 39.7166 12.5075C39.8385 11.5258 40.219 10.8595 40.7385 10.4401C40.7385 10.4395 40.7391 10.4395 40.7398 10.4388C41.3475 9.94896 42.1468 9.79819 42.9468 9.88115C45.4454 10.1399 46.595 12.998 45.0695 14.6822L45.0701 14.6815Z" fill="white"/>
<path d="M38.3392 13.7045C38.3392 14.2984 37.9725 14.7803 37.5195 14.7803C37.0666 14.7803 36.6998 14.2984 36.6998 13.7045C36.6998 13.1106 37.0672 12.6287 37.5195 12.6287C37.6308 12.6287 37.7375 12.6576 37.8343 12.711C37.6512 12.7419 37.513 12.9006 37.513 13.0922C37.513 13.3068 37.6861 13.4793 37.9001 13.4793C38.0621 13.4793 38.2003 13.3812 38.2583 13.2403C38.3103 13.3806 38.3386 13.5379 38.3386 13.7038L38.3392 13.7045Z" fill="#292920"/>
<path d="M34.6714 17.348C34.6714 17.348 40.333 18.0657 44.8411 16.2742C44.8411 16.2742 44.6429 19.7644 40.092 19.7644C35.8585 19.7644 34.6714 17.348 34.6714 17.348Z" fill="white"/>
<path d="M42.3845 13.7045C42.3845 14.2984 42.0178 14.7803 41.5648 14.7803C41.1118 14.7803 40.7451 14.2984 40.7451 13.7045C40.7451 13.1106 41.1118 12.6287 41.5648 12.6287C41.6761 12.6287 41.7828 12.6576 41.8795 12.711C41.6965 12.7419 41.5582 12.9006 41.5582 13.0922C41.5582 13.3068 41.7314 13.4793 41.9454 13.4793C42.108 13.4793 42.2456 13.3799 42.3036 13.239C42.3549 13.3792 42.3839 13.5373 42.3839 13.7045H42.3845Z" fill="#292920"/>
<path d="M43.2068 15.7246C43.4537 15.56 43.7092 15.3921 44.0002 15.3328C44.1779 15.2966 44.361 15.3032 44.542 15.3091C44.6757 15.3137 44.8113 15.319 44.9384 15.3605C45.0655 15.4019 45.1853 15.4856 45.2393 15.608C45.2452 15.6218 45.2511 15.6376 45.2478 15.6528C45.2445 15.6692 45.232 15.6818 45.2202 15.6936C45.13 15.7772 45.0174 15.8332 44.9042 15.8832C44.6092 16.0142 44.303 16.117 43.9969 16.219C43.8448 16.2697 43.6934 16.3204 43.5393 16.3658C43.4827 16.3823 43.4254 16.3981 43.3668 16.4001C43.2233 16.4053 42.8763 16.2941 42.846 16.1275C42.8131 15.9471 43.0863 15.8042 43.2061 15.7246H43.2068Z" fill="#88B825"/>
<path d="M45.8371 15.7865C45.0483 15.3039 43.9659 15.3157 43.0817 15.9004C42.9329 15.9985 42.7973 16.1084 42.6748 16.2276C42.8295 15.9563 43.0527 15.7134 43.3372 15.5251C44.1786 14.9687 45.2564 15.0945 45.8371 15.7871V15.7865Z" fill="#B7CE3F"/>
<path d="M42.8947 17.9677C42.7664 18.0217 42.636 18.0658 42.5036 18.1066C42.372 18.1474 42.2383 18.1823 42.1033 18.2133C41.969 18.2449 41.8327 18.2706 41.6951 18.289C41.5575 18.3061 41.4179 18.3186 41.277 18.3088C41.2586 18.3074 41.2441 18.291 41.2454 18.2725C41.2468 18.2574 41.2573 18.2455 41.2711 18.2416C41.5365 18.1764 41.8005 18.1145 42.0678 18.0572C42.2014 18.0283 42.3351 17.9993 42.4694 17.9736C42.6037 17.9473 42.7387 17.9223 42.8756 17.9032C42.8941 17.9005 42.9112 17.9131 42.9138 17.9315C42.9158 17.9473 42.9072 17.9618 42.8934 17.9677H42.8947Z" fill="#646460"/>
<path d="M42.1409 18.4555C42.0968 18.4186 42.0638 18.3765 42.0342 18.3297C42.0046 18.2837 41.9809 18.2343 41.9631 18.1809C41.946 18.1276 41.9335 18.0717 41.9348 18.0131C41.9354 17.9551 41.948 17.8939 41.9815 17.8432C41.9921 17.8274 42.0138 17.8228 42.0296 17.8333C42.0388 17.8392 42.0441 17.8485 42.0454 17.8583V17.8623C42.0513 17.9117 42.0592 17.9551 42.0684 17.9999C42.0783 18.044 42.0921 18.0888 42.106 18.1342C42.1336 18.2251 42.1705 18.3172 42.1968 18.4173V18.4193C42.2021 18.4377 42.1909 18.4568 42.1725 18.4621C42.1613 18.4654 42.1494 18.4621 42.1409 18.4548V18.4555Z" fill="#646460"/>
<path d="M37.8376 20.186C37.8376 20.186 40.8123 20.9998 42.4609 19.8318L37.8376 20.186Z" fill="#88B825"/>
<path d="M37.8402 20.1766C38.2392 20.2141 38.6316 20.2503 39.024 20.274C39.4157 20.2971 39.8062 20.3116 40.194 20.3017C40.5818 20.2925 40.9682 20.2602 41.3475 20.1878C41.5364 20.1496 41.7261 20.1081 41.9098 20.0456C42.0948 19.9857 42.2752 19.9099 42.4562 19.823C42.4608 19.8211 42.4661 19.823 42.4687 19.827C42.4707 19.8309 42.4694 19.8349 42.4668 19.8375C42.3213 19.9778 42.152 20.093 41.9736 20.1924C41.7939 20.2892 41.6029 20.3662 41.4074 20.4275C41.0156 20.5473 40.6074 20.6026 40.2019 20.6131C39.7956 20.6256 39.3914 20.5901 38.9944 20.5229C38.598 20.4518 38.2062 20.3524 37.8356 20.1931C37.831 20.1911 37.829 20.1858 37.831 20.1812C37.8323 20.1773 37.8369 20.1753 37.8408 20.1759L37.8402 20.1766Z" fill="#B7CE3F"/>
<path d="M38.8279 21.6732C38.4671 21.5034 38.0134 21.3802 37.7172 21.7134C37.6651 21.7726 37.6322 21.8503 37.6414 21.9247C37.6605 22.088 37.8297 22.1413 37.9509 22.2184C38.0016 22.2506 38.0477 22.2967 38.0575 22.3566C38.0668 22.4152 38.0398 22.4765 38.0029 22.5272C37.9127 22.6529 37.7935 22.7629 37.8166 22.9255C37.8297 23.019 37.8943 23.096 37.9726 23.1487C38.1234 23.2501 38.3321 23.2619 38.5105 23.1941C38.7258 23.1118 38.8522 22.9097 39.0129 22.7583C39.19 22.5917 39.4843 22.4528 39.4883 22.1828C39.4902 22.0011 39.2506 21.9017 39.1163 21.8253C39.0326 21.7773 38.9345 21.7233 38.8285 21.6732H38.8279Z" fill="#941914"/>
<path d="M40.4258 21.6732C40.7866 21.5034 41.2402 21.3802 41.5365 21.7134C41.5885 21.7726 41.6214 21.8503 41.6122 21.9247C41.5931 22.088 41.4239 22.1413 41.3028 22.2184C41.2521 22.2506 41.206 22.2967 41.1961 22.3566C41.1869 22.4152 41.2139 22.4765 41.2507 22.5272C41.341 22.6529 41.4601 22.7629 41.4371 22.9255C41.4239 23.019 41.3594 23.096 41.281 23.1487C41.1303 23.2501 40.9215 23.2619 40.7431 23.1941C40.5278 23.1118 40.4014 22.9097 40.2408 22.7583C40.0637 22.5917 39.7693 22.4528 39.7654 22.1828C39.7634 22.0011 40.0031 21.9017 40.1374 21.8253C40.221 21.7773 40.3191 21.7233 40.4251 21.6732H40.4258Z" fill="#941914"/>
<path d="M39.8886 22.7589C39.9624 22.7286 40.0163 22.6693 40.0361 22.5976L40.0875 22.4125C40.1335 22.2447 40.1085 22.0682 40.0203 21.9174C39.9676 21.8272 39.886 21.7509 39.7813 21.7153C39.5811 21.6475 39.3691 21.7192 39.2625 21.8733C39.1512 22.0333 39.117 22.2289 39.167 22.4125L39.2177 22.5488C39.2585 22.6581 39.3454 22.747 39.4593 22.7957H39.4633C39.6055 22.8273 39.755 22.8142 39.888 22.7595L39.8886 22.7589Z" fill="#681412"/>
<path d="M39.8398 22.7589C39.8997 22.7286 39.9438 22.6693 39.9603 22.5976L40.0018 22.4125C40.0393 22.2447 40.0189 22.0682 39.9471 21.9174C39.9043 21.8272 39.8378 21.7509 39.7529 21.7153C39.5896 21.6475 39.4171 21.7192 39.3302 21.8733C39.2394 22.0333 39.2117 22.2289 39.2525 22.4125L39.294 22.5488C39.3269 22.6581 39.398 22.747 39.4909 22.7957H39.4942C39.61 22.8273 39.7318 22.8142 39.8405 22.7595L39.8398 22.7589Z" fill="#941914"/>
<path d="M40.1645 22.1234C40.2613 21.9844 40.4535 21.9199 40.6214 21.9581C40.7748 22.0549 40.5352 22.1991 40.4509 22.2392C40.4476 22.2406 40.441 22.2445 40.4437 22.2432C40.445 22.2432 40.4614 22.2313 40.4674 22.2116C40.4733 22.1958 40.4693 22.1721 40.4608 22.1609C40.4555 22.1536 40.4522 22.1517 40.4542 22.1523C40.5925 22.2076 40.7419 22.315 40.759 22.4822C40.7702 22.548 40.7149 22.6119 40.6478 22.6086C40.4595 22.5915 40.3126 22.4605 40.1955 22.3406C40.1882 22.3334 40.1974 22.3215 40.206 22.3261C40.3521 22.3933 40.4937 22.4769 40.6392 22.4789C40.6425 22.4782 40.6438 22.4763 40.6392 22.4776C40.6353 22.4782 40.6267 22.4861 40.6234 22.494C40.6208 22.5013 40.6214 22.5019 40.6208 22.498C40.6017 22.421 40.5424 22.3716 40.4674 22.3288C40.4338 22.3077 40.3943 22.2959 40.3614 22.2728C40.2955 22.2267 40.3107 22.1332 40.3805 22.1062C40.4213 22.0852 40.4805 22.0608 40.5141 22.0358C40.5253 22.0279 40.5345 22.0187 40.5424 22.0101C40.5451 22.0075 40.5437 22.0081 40.5424 22.0141C40.5398 22.0193 40.5378 22.0397 40.5457 22.0536C40.5536 22.0681 40.5628 22.0713 40.5655 22.0727C40.4555 22.0437 40.2863 22.0588 40.1777 22.1359C40.1698 22.1418 40.1586 22.1319 40.1645 22.1234Z" fill="#681412"/>
<path d="M39.0761 22.136C38.9675 22.0596 38.7983 22.0438 38.6883 22.0728C38.691 22.0715 38.7002 22.0682 38.7081 22.0537C38.716 22.0399 38.714 22.0195 38.7114 22.0142C38.7094 22.0083 38.7081 22.0076 38.7114 22.0103C38.7555 22.0596 38.8305 22.0814 38.8904 22.1156C38.9602 22.1558 38.9431 22.2552 38.87 22.2868C38.791 22.3217 38.6942 22.3744 38.6541 22.4455C38.6435 22.4613 38.637 22.4797 38.633 22.4975C38.6317 22.5014 38.633 22.5008 38.6304 22.4935C38.6277 22.4856 38.6192 22.4777 38.6146 22.4771C38.6106 22.4757 38.6119 22.4771 38.6146 22.4784C38.7601 22.4764 38.9016 22.3928 39.0478 22.3256C39.0564 22.321 39.0656 22.3335 39.0583 22.3401C38.9774 22.4376 38.6034 22.7431 38.5013 22.5396C38.4625 22.3665 38.6291 22.2275 38.764 22.167C38.77 22.1643 38.7963 22.1525 38.8009 22.1512C38.7871 22.1617 38.7798 22.1913 38.7864 22.2104C38.7923 22.2308 38.8088 22.242 38.8101 22.242C38.7324 22.1986 38.631 22.1531 38.5882 22.0603C38.5823 22.0465 38.5797 22.0162 38.5922 21.9945C38.6119 21.9609 38.6337 21.955 38.6607 21.949C38.8239 21.9339 38.9965 21.9872 39.0893 22.1228C39.0946 22.1314 39.084 22.1413 39.0761 22.1354V22.136Z" fill="#681412"/>
<path d="M11.6142 17.6531L11.3153 10.5542H9.08397L8.72843 11.4523C8.8904 11.8387 8.92661 12.2924 8.83575 12.8079C8.75147 13.2879 8.55922 13.706 8.26492 14.0497C8.04764 14.3031 7.77375 14.5184 7.44652 14.6936L7.41821 14.766L8.19842 17.6531H8.21093L8.54605 16.6075H9.71801L9.68443 17.6531H11.6149H11.6142ZM8.99311 15.1735L9.84574 12.5432L9.78056 15.1735H8.99311Z" fill="white"/>
<path d="M2.8831 17.6531L4.13473 10.5542H6.41477C7.18641 10.5542 7.75922 10.7504 8.13451 11.1428C8.50914 11.5352 8.63753 12.0685 8.51836 12.7427C8.44528 13.1575 8.28331 13.5117 8.0318 13.8054C7.78095 14.0984 7.44056 14.3328 7.01128 14.5072L7.86128 17.6531H5.76098L5.35079 14.9056L4.86621 17.6531H2.88245H2.8831ZM5.85842 12.0277L5.56016 13.7198C5.83011 13.7139 6.03882 13.6428 6.18564 13.5084C6.33247 13.3735 6.43123 13.1621 6.48258 12.8737C6.53196 12.5913 6.51089 12.3799 6.41938 12.239C6.32786 12.0975 6.16655 12.0277 5.93677 12.0277H5.85908H5.85842Z" fill="white"/>
<path d="M13.9179 10.8664C13.7902 10.8025 13.6473 10.7703 13.4893 10.7703H12.3983V13.2412H13.0225V12.3557H13.4893C13.6473 12.3557 13.7902 12.3241 13.9179 12.2615C14.0456 12.199 14.147 12.1075 14.2214 11.9876C14.2958 11.8678 14.3327 11.7269 14.3327 11.5643C14.3327 11.4017 14.2958 11.2548 14.2214 11.1377C14.147 11.0205 14.0463 10.9296 13.9179 10.8657V10.8664ZM13.6671 11.746C13.6368 11.7947 13.5966 11.8316 13.5466 11.856C13.4965 11.8803 13.4412 11.8928 13.3813 11.8928H13.0225V11.2338H13.3813C13.4419 11.2338 13.4972 11.2463 13.5466 11.2706C13.5966 11.295 13.6368 11.3325 13.6671 11.3819C13.6973 11.432 13.7125 11.4932 13.7125 11.565C13.7125 11.6367 13.6973 11.6973 13.6671 11.746Z" fill="white"/>
<path d="M16.0933 12.149C16.2236 12.0877 16.325 12.0015 16.3981 11.8909C16.4712 11.7803 16.5081 11.6519 16.5081 11.5057C16.5081 11.3595 16.4718 11.2318 16.4001 11.1225C16.3283 11.0132 16.2289 10.9276 16.1018 10.8644C15.9754 10.8019 15.8279 10.7703 15.6607 10.7703H14.6079V13.2412H15.2321V12.2411H15.2689L15.9471 13.2412H16.6687L15.9109 12.2102C15.9754 12.195 16.0366 12.1753 16.0933 12.1483V12.149ZM15.5738 11.2338C15.6758 11.2338 15.7542 11.2601 15.8088 11.3121C15.8635 11.3641 15.8905 11.4326 15.8905 11.5162C15.8905 11.5998 15.8628 11.6703 15.8088 11.7203C15.7542 11.7704 15.6758 11.7954 15.5738 11.7954H15.2321V11.2344H15.5738V11.2338Z" fill="white"/>
<path d="M17.815 10.3435L18.324 10.6201L18.4978 10.3626L17.9717 9.87476H17.6544L17.1283 10.3626L17.3028 10.6201L17.815 10.3435Z" fill="white"/>
<path d="M17.4944 12.2378H18.5781V11.7256H17.4944V11.2963H18.6828V10.7703H17.4944H17.3654H16.8702V13.2412H17.3654H17.4944H18.7039V12.7152H17.4944V12.2378Z" fill="white"/>
<path d="M20.3465 12.0416L19.5051 10.7703H19.0554V13.2412H19.6763V11.9771L20.1431 12.6836H20.5474L21.0181 11.9765V13.2412H21.635V10.7703H21.1853L20.3465 12.0416Z" fill="white"/>
<path d="M22.6984 10.7703H22.0742V13.2412H22.6984V10.7703Z" fill="white"/>
<path d="M25.5538 11.4982C25.4873 11.3428 25.3951 11.2066 25.2766 11.0907C25.1581 10.9748 25.0185 10.8846 24.8585 10.8207C24.6985 10.7569 24.5227 10.7246 24.3325 10.7246C24.1422 10.7246 23.9664 10.7569 23.8064 10.8207C23.6464 10.8846 23.5068 10.9748 23.3883 11.0907C23.2698 11.2066 23.1776 11.3422 23.1111 11.4969C23.0446 11.6516 23.0117 11.8195 23.0117 12.0006C23.0117 12.1817 23.0453 12.3509 23.1131 12.5076C23.1803 12.6643 23.2738 12.8012 23.3936 12.9171C23.5134 13.0336 23.653 13.1238 23.8137 13.189C23.9736 13.2542 24.1494 13.2864 24.3397 13.2864C24.53 13.2864 24.7018 13.2542 24.8605 13.1903C25.0198 13.1265 25.1588 13.0356 25.2773 12.9184C25.3958 12.8012 25.488 12.6649 25.5545 12.5089C25.621 12.3535 25.6539 12.1849 25.6539 12.0032C25.6539 11.8215 25.621 11.6536 25.5545 11.4976L25.5538 11.4982ZM24.9323 12.3838C24.8763 12.4931 24.7973 12.578 24.6952 12.6379C24.5932 12.6985 24.4721 12.7288 24.3325 12.7288C24.2278 12.7288 24.1336 12.7117 24.05 12.6781C23.9664 12.6445 23.8946 12.5958 23.8341 12.5319C23.7735 12.4681 23.7281 12.3917 23.6965 12.3021C23.6649 12.2126 23.6497 12.1119 23.6497 12.0006C23.6497 11.8564 23.6774 11.73 23.7333 11.6207C23.7893 11.5114 23.8683 11.4271 23.9704 11.3679C24.0724 11.3086 24.1935 11.279 24.3331 11.279C24.4378 11.279 24.532 11.2961 24.6156 11.331C24.6992 11.3659 24.771 11.4153 24.8315 11.4791C24.8921 11.543 24.9375 11.6194 24.9691 11.7076C25.0007 11.7958 25.0159 11.8933 25.0159 12.0006C25.0159 12.1468 24.9882 12.2745 24.9323 12.3838Z" fill="white"/>
<path d="M14.7593 16.1948C14.9022 16.0592 15.0168 15.9295 15.1024 15.8057C15.1879 15.6826 15.2505 15.5575 15.29 15.4304C15.3295 15.3033 15.3493 15.1651 15.3493 15.015C15.3493 14.7648 15.2946 14.5475 15.186 14.3631C15.0767 14.1788 14.922 14.0366 14.7218 13.9365C14.5216 13.8364 14.284 13.7864 14.0088 13.7864C13.6973 13.7864 13.4221 13.8516 13.1825 13.9819C12.9428 14.1123 12.7459 14.3032 12.5925 14.5534L13.22 15.1111C13.3378 14.9327 13.4524 14.8043 13.563 14.7279C13.6736 14.6509 13.7974 14.6127 13.933 14.6127C14.0759 14.6127 14.1911 14.6522 14.2787 14.7305C14.3663 14.8095 14.4104 14.9169 14.4104 15.0525C14.4104 15.1131 14.4005 15.1717 14.3807 15.227C14.361 15.2823 14.3281 15.3415 14.2813 15.4041C14.2346 15.4666 14.176 15.5371 14.1042 15.6161L12.6129 17.1337V17.6538H15.4289V16.8545H14.0805L14.7587 16.1948H14.7593Z" fill="white"/>
<path d="M18.235 14.0359C17.9848 13.8693 17.6984 13.7864 17.3771 13.7864C17.0558 13.7864 16.7806 13.8693 16.5324 14.0359C16.2835 14.2025 16.088 14.4329 15.9451 14.7279C15.8022 15.0229 15.7305 15.3619 15.7305 15.7445C15.7305 16.127 15.8029 16.472 15.9477 16.7689C16.0926 17.0659 16.2901 17.297 16.5403 17.4635C16.7905 17.6301 17.0749 17.7131 17.3929 17.7131C17.7109 17.7131 17.9888 17.6308 18.2377 17.4662C18.4859 17.3016 18.6821 17.0718 18.825 16.7768C18.9678 16.4819 19.0396 16.1415 19.0396 15.755C19.0396 15.3685 18.9678 15.0229 18.825 14.7279C18.6821 14.4329 18.4852 14.2025 18.235 14.0359ZM17.996 16.3719C17.9407 16.5398 17.8611 16.6675 17.7577 16.7558C17.6537 16.8433 17.5286 16.8874 17.3824 16.8874C17.2362 16.8874 17.1157 16.8433 17.0124 16.7558C16.9083 16.6682 16.8293 16.5392 16.774 16.3693C16.7187 16.1994 16.6911 15.9914 16.6911 15.7445C16.6911 15.4976 16.7187 15.2961 16.774 15.1275C16.8293 14.9596 16.909 14.8326 17.0124 14.747C17.1157 14.6614 17.2375 14.6179 17.3771 14.6179C17.5272 14.6179 17.6543 14.6621 17.7577 14.7496C17.8617 14.8372 17.9407 14.9649 17.996 15.1328C18.0513 15.3007 18.079 15.5068 18.079 15.7497C18.079 15.9927 18.0513 16.204 17.996 16.3719Z" fill="white"/>
<path d="M21.4473 16.1948C21.5902 16.0592 21.7047 15.9295 21.7903 15.8057C21.8759 15.6826 21.9385 15.5575 21.978 15.4304C22.0175 15.3033 22.0372 15.1651 22.0372 15.015C22.0372 14.7648 21.9826 14.5475 21.874 14.3631C21.7647 14.1788 21.6099 14.0366 21.4098 13.9365C21.2096 13.8364 20.972 13.7864 20.6967 13.7864C20.3853 13.7864 20.1101 13.8516 19.8704 13.9819C19.6308 14.1123 19.4339 14.3032 19.2805 14.5534L19.908 15.1111C20.0258 14.9327 20.1404 14.8043 20.251 14.7279C20.3616 14.6509 20.4854 14.6127 20.621 14.6127C20.7639 14.6127 20.8791 14.6522 20.9667 14.7305C21.0543 14.8095 21.0984 14.9169 21.0984 15.0525C21.0984 15.1131 21.0885 15.1717 21.0687 15.227C21.049 15.2823 21.0161 15.3415 20.9693 15.4041C20.9226 15.4666 20.864 15.5371 20.7922 15.6161L19.3009 17.1337V17.6538H22.1169V16.8545H20.7685L21.4467 16.1948H21.4473Z" fill="white"/>
<path d="M25.459 16.0769H25.0942V15.3638H24.156V16.0769H23.5015L24.5905 13.8508H23.5608L22.3698 16.3501V16.8762H24.156V17.6538H25.0942V16.8762H25.459V16.0769Z" fill="white"/>
<path d="M58.6595 17.2539V11.1907H62.7555V11.8023H59.4318V13.9204H62.4164V14.5228H59.4318V16.6508H62.7555V17.2532H58.6595V17.2539Z" fill="white"/>
<path d="M63.8853 17.2539V11.1907H64.7135L66.7658 15.3992L68.818 11.1907H69.6463V17.2539H68.8838V12.3955L67.0291 16.1991H66.5116L64.6477 12.3955V17.2539H63.8853Z" fill="white"/>
<path d="M70.9651 17.2539V11.1907H73.5263C74.2044 11.1907 74.7035 11.3731 75.0235 11.7365C75.3435 12.1006 75.5034 12.5713 75.5034 13.1488C75.5034 13.7262 75.323 14.2048 74.9622 14.5472C74.6014 14.8896 74.1103 15.0601 73.4887 15.0601H71.7374V17.2539H70.9651ZM71.7374 14.457H73.3663C73.8179 14.457 74.1583 14.3391 74.3881 14.1041C74.6172 13.8684 74.7318 13.5504 74.7318 13.1488C74.7318 12.7221 74.6238 12.3909 74.4072 12.1552C74.1906 11.9202 73.8594 11.8023 73.4137 11.8023H71.7381V14.4577L71.7374 14.457Z" fill="white"/>
<path d="M76.4443 17.2539V11.1907H79.1089C79.7613 11.1907 80.2374 11.3599 80.5349 11.699C80.8332 12.038 80.982 12.4963 80.982 13.0737C80.982 13.5194 80.874 13.8895 80.6574 14.1844C80.4408 14.4794 80.1188 14.6776 79.6922 14.7776C79.818 14.8527 79.9134 14.9396 79.9793 15.0364C80.0451 15.1338 80.1123 15.2642 80.1814 15.4268L80.9721 17.2532H80.1814L79.4091 15.4927C79.3274 15.3044 79.2287 15.1694 79.1128 15.0877C78.9963 15.0061 78.7908 14.9653 78.4959 14.9653H77.2153V17.2532H76.443L76.4443 17.2539ZM77.2166 14.3628H78.8922C79.3005 14.3628 79.6218 14.2608 79.8575 14.0567C80.0925 13.8526 80.2104 13.5247 80.2104 13.073C80.2104 12.2257 79.8054 11.8023 78.9956 11.8023H77.216V14.3635L77.2166 14.3628Z" fill="white"/>
<path d="M82.1124 17.2539V11.1907H86.2083V11.8023H82.8847V13.9204H85.8693V14.5228H82.8847V16.6508H86.2083V17.2532H82.1124V17.2539Z" fill="white"/>
<path d="M88.8347 17.3481C88.0815 17.3481 87.4725 17.254 87.0083 17.0656V16.3783C87.2717 16.479 87.5528 16.5554 87.8511 16.6087C88.1493 16.662 88.4548 16.689 88.7689 16.689C89.3088 16.689 89.7137 16.6153 89.9836 16.4678C90.2536 16.3203 90.3886 16.055 90.3886 15.6725C90.3886 15.4341 90.3333 15.2439 90.224 15.103C90.114 14.9614 89.9336 14.8422 89.6828 14.7454C89.4319 14.648 89.0955 14.5492 88.6754 14.4492C88.0098 14.2859 87.5423 14.0739 87.2723 13.8138C87.0024 13.5537 86.8674 13.2035 86.8674 12.7643C86.8674 12.2494 87.0524 11.8432 87.4231 11.545C87.7931 11.2467 88.3581 11.0979 89.1178 11.0979C89.4694 11.0979 89.796 11.1229 90.0969 11.173C90.3984 11.223 90.6302 11.2763 90.7935 11.333V12.0111C90.5676 11.9295 90.3227 11.8669 90.0594 11.8228C89.796 11.7787 89.5228 11.757 89.2403 11.757C88.7254 11.757 88.3304 11.832 88.0539 11.9828C87.7773 12.1336 87.6397 12.3943 87.6397 12.7643C87.6397 12.9717 87.6885 13.1396 87.7859 13.268C87.8833 13.397 88.0479 13.5063 88.2804 13.5972C88.5128 13.6881 88.8361 13.7842 89.2502 13.8843C89.746 14.0034 90.1318 14.1463 90.4083 14.3129C90.6842 14.4794 90.8791 14.6757 90.9923 14.9015C91.1056 15.1273 91.1615 15.3847 91.1615 15.6738C91.1615 16.2071 90.9666 16.6199 90.5775 16.9116C90.1884 17.2033 89.6077 17.3494 88.8354 17.3494L88.8347 17.3481Z" fill="white"/>
<path d="M91.5842 17.2539L93.8913 11.1907H94.7953L97.0924 17.2539H96.3017L95.6617 15.5875H93.0255L92.3855 17.2539H91.5849H91.5842ZM93.1565 14.9752H95.5195L94.3331 11.859L93.1558 14.9752H93.1565Z" fill="white"/>
<path d="M100.152 17.2539V11.1907H101.922V17.2539H100.152Z" fill="white"/>
<path d="M102.769 17.2539V11.1907H104.276L106.564 14.401V11.1907H108.333V17.2539H106.818L104.539 14.0527V17.2539H102.769Z" fill="white"/>
<path d="M109.181 17.2539V11.1907H111.892C112.513 11.1907 113.044 11.2927 113.483 11.4968C113.922 11.7009 114.258 12.0275 114.491 12.4759C114.723 12.9249 114.839 13.5194 114.839 14.2601C114.839 15.3024 114.585 16.0615 114.077 16.5389C113.568 17.0162 112.84 17.2545 111.892 17.2545H109.181V17.2539ZM110.951 15.8976H111.667C111.962 15.8976 112.209 15.8554 112.411 15.7705C112.612 15.6856 112.765 15.5256 112.872 15.2905C112.979 15.0548 113.032 14.7118 113.032 14.2595C113.032 13.8072 112.984 13.4575 112.886 13.21C112.789 12.9618 112.64 12.7893 112.439 12.6918C112.238 12.5944 111.981 12.5457 111.667 12.5457H110.951V15.8976Z" fill="white"/>
<path d="M115.499 17.2539V11.1907H117.268V17.2539H115.499Z" fill="white"/>
<path d="M121.308 17.3481C120.21 17.3481 119.371 17.0782 118.794 16.5383C118.217 15.9984 117.927 15.236 117.927 14.2503C117.927 13.2647 118.21 12.4536 118.775 11.9104C119.34 11.3672 120.181 11.0959 121.298 11.0959C121.674 11.0959 122.01 11.1243 122.305 11.1809C122.6 11.2375 122.883 11.3159 123.153 11.4159V12.9599C122.613 12.7215 122.035 12.6024 121.42 12.6024C120.849 12.6024 120.425 12.7327 120.15 12.9928C119.873 13.2535 119.735 13.6723 119.735 14.2497C119.735 14.8271 119.882 15.2208 120.173 15.469C120.465 15.7173 120.887 15.841 121.439 15.841C121.741 15.841 122.034 15.8127 122.32 15.7561C122.605 15.6995 122.889 15.6119 123.172 15.4927V17.0466C122.902 17.1407 122.618 17.2145 122.32 17.2678C122.021 17.3211 121.684 17.3481 121.308 17.3481Z" fill="white"/>
<path d="M123.454 17.2539L125.78 11.1907H127.653L129.979 17.2539H128.133L127.625 15.9641H125.799L125.3 17.2539H123.454ZM126.034 14.6927H127.389L126.711 12.9131L126.033 14.6927H126.034Z" fill="white"/>
<path d="M130.638 17.2539V11.1907H133.349C133.971 11.1907 134.501 11.2927 134.941 11.4968C135.38 11.7009 135.716 12.0275 135.948 12.4759C136.18 12.9249 136.296 13.5194 136.296 14.2601C136.296 15.3024 136.042 16.0615 135.534 16.5389C135.026 17.0162 134.297 17.2545 133.349 17.2545H130.638V17.2539ZM132.408 15.8976H133.123C133.418 15.8976 133.666 15.8554 133.867 15.7705C134.068 15.6856 134.222 15.5256 134.329 15.2905C134.436 15.0548 134.489 14.7118 134.489 14.2595C134.489 13.8072 134.44 13.4575 134.343 13.21C134.245 12.9618 134.097 12.7893 133.896 12.6918C133.695 12.5944 133.437 12.5457 133.123 12.5457H132.408V15.8976Z" fill="white"/>
<path d="M136.25 17.2539L138.575 11.1907H140.449L142.774 17.2539H140.929L140.42 15.9641H138.594L138.095 17.2539H136.25ZM138.829 14.6927H140.185L139.507 12.9131L138.828 14.6927H138.829Z" fill="white"/>
</g>
<defs>
<linearGradient id="paint0_linear_3995_24" x1="32.6962" y1="58.0973" x2="121.304" y2="-30.5103" gradientUnits="userSpaceOnUse">
<stop stop-color="#91C800"/>
<stop offset="0.03" stop-color="#8AC402"/>
<stop offset="0.26" stop-color="#59A917"/>
<stop offset="0.49" stop-color="#329428"/>
<stop offset="0.69" stop-color="#168534"/>
<stop offset="0.87" stop-color="#057C3B"/>
<stop offset="1" stop-color="#00793E"/>
</linearGradient>
<clipPath id="clip0_3995_24">
<rect width="154" height="27.587" fill="white"/>
</clipPath>
</defs>
</svg>
